# xmcd CD database file
# Copyright (C) 1993-1996 Ti Kan
#
# Track frame offsets:
#  150
#  20103
#  36450
#  53705
#  71168
#  85888
#  100422
#  118507
#  134865
#  150984
#  167412
#  183187
#
# Disc length: 2664 seconds
#
# Revision: 1
# Processed by: cddbd v1.5.2PL0 Copyright (c) Steve Scherf et al.
# Submitted via: Advanced CD Ripper Pro 2.0
#
DISCID=a30a660c
DTITLE=สลา คุณวุฒิ - 2 ทศวรรษ สลา คุณวุฒิ Disc 2
DYEAR=2003
DGENRE=Country
TTITLE0=รองเท้าหน้าห้อง-จักรพรรณ์ อาบครบุรี
TTITLE1=รักนอกหัวใจ-ศิริพร อำไพพงษ์
TTITLE2=ด.ช. ปึก แป้นปีก-ไมค์ ภิรมย์พร
TTITLE3=อยากลืมแฟนเขา-ต่าย อรทัย
TTITLE4=สัญญารักคนรถ-สาว สมภาร,พี สะเดิด
TTITLE5=น้ำตาหล่นบนโต๊ะจีน-ศร สินชัย
TTITLE6=นิ้วนางข้างซ้าย-แช่ม แช่มรัมย์
TTITLE7=จากคนที่รักเธอ-วรานุช พุทชาด
TTITLE8=อายเข็มนาฬิกา-อรวี สัจจานนท์
TTITLE9=พี่เมาเขาหมั้น-เอกพล มนต์ตระการ
TTITLE10=รักชำรุด-จอมขวัญ กัลยา
TTITLE11=กระทงหลงทาง-โอภาส ทศพร
EXTD=
EXTT0=
EXTT1=
EXTT2=
EXTT3=
EXTT4=
EXTT5=
EXTT6=
EXTT7=
EXTT8=
EXTT9=
EXTT10=
EXTT11=
PLAYORDER=
